<svg width="40" height="40" viewBox="0 0 40 40" fill="none" xmlns="http://www.w3.org/2000/svg">
    <rect width="40" height="40" rx="10" fill="#5d8affde"/>
    <path fill-rule="evenodd" clip-rule="evenodd" d="M20.675 20.8306C22.6419 20.358 23.5578 22.7869 21.5856 23.2894C19.572 23.8019 18.5403 21.3425 20.675 20.8306V20.8306ZM19.7191 31.1944L19.7571 31.1631C19.9934 31.2416 20.472 32.7939 22.1726 33.2532C24.3918 33.8529 26.9585 32.6375 28.2964 30.5634C28.6798 29.9683 29.8766 27.8383 28.8608 27.417C27.9722 27.0489 27.6208 29.1176 27.059 29.9596C26.4559 30.8629 25.4096 31.5631 24.3626 31.8094C20.7948 32.6494 20.4134 29.5663 20.446 26.8438C22.2252 26.3107 24.1509 24.0129 24.0337 22.072C23.8886 19.6691 20.5405 18.9289 18.6328 19.305C16.1181 19.8015 14.697 21.5109 15.9903 24.0555C17.448 26.9204 19.0309 26.3599 19.1028 27.1933C19.3624 30.1886 17.6104 33.5147 13.9089 31.3015C13.0176 30.7684 12.4086 29.9836 11.9646 29.0517C11.7995 28.7056 11.5433 27.7092 11.3975 27.5527C10.9788 27.1061 10.2346 27.4476 10.2586 28.1265C10.3218 29.919 12.2888 32.2148 13.9029 32.8811C16.1261 33.7996 18.6056 33.58 19.7191 31.195V31.1944ZM23.9432 17.5278C23.4313 16.3383 22.9361 15.1548 23.7309 13.8775C24.4631 12.7013 25.8655 12.6594 26.9026 13.4668C29.0739 15.1555 29.0712 19.3536 26.3301 19.1705C27.8325 18.6819 28.2844 17.0978 27.5775 15.7106L25.9581 16.938L26.4965 14.8526C24.5882 14.3787 23.8986 15.9109 23.9432 17.5271V17.5278ZM24.7886 11.5418C19.8163 12.5535 22.138 21.439 27.0277 20.5717C31.98 19.693 29.7082 10.5407 24.7886 11.5418V11.5418ZM14.0999 16.7643L12.5384 15.5488C12.0798 16.0301 12.0405 16.9453 12.2322 17.5597C12.4605 18.2912 12.7514 18.4876 13.3172 18.8863C10.5561 18.658 10.9582 15.0982 12.5537 13.4548C13.3724 12.6121 14.6903 12.2833 15.6608 13.0973C16.7039 13.9706 16.4509 15.4417 16.1847 16.5752C15.7487 15.8497 15.8579 14.9378 14.5379 14.6616C13.0689 14.3547 13.7259 14.9531 14.0999 16.7643V16.7643ZM13.8636 11.2403C8.69838 12.0949 8.72035 21.1248 13.8803 20.2861C19.0269 19.4487 19.0036 10.3902 13.8636 11.2403V11.2403ZM23.221 7.03084C22.4795 7.15065 22.3743 8.02462 22.8502 8.34145C23.3328 8.66229 24.5529 7.98534 25.8369 9.89635C26.1524 10.3663 26.2855 11.1078 26.9319 11.0273C28.7044 10.8063 25.8895 6.60084 23.221 7.03084V7.03084ZM14.8221 7.04681C13.6813 7.21122 12.7454 7.92011 12.0851 8.83734C10.4743 11.0798 12.0884 11.4067 12.545 10.7291C13.1687 9.80383 13.4975 8.7821 14.7975 8.49588C15.3367 8.3774 16.3165 8.65962 16.2685 7.70378C16.2286 6.91701 15.3919 6.96494 14.8215 7.04748L14.8221 7.04681Z" fill="#1A1A1A"/>
</svg>
